<?xml version="1.0" standalone="no"?>
<!DOCTYPE svg PUBLIC "-//W3C//DTD SVG 20010904//EN"
 "http://www.w3.org/TR/2001/REC-SVG-20010904/DTD/svg10.dtd">
<svg version="1.0" xmlns="http://www.w3.org/2000/svg"
 width="5200.000000pt" height="3467.000000pt" viewBox="0 0 5200.000000 3467.000000"
 preserveAspectRatio="xMidYMid meet">
<metadata>
Created by potrace 1.16, written by Peter Selinger 2001-2019
</metadata>
<g transform="translate(0.000000,3467.000000) scale(0.100000,-0.100000)"
fill="#000000" stroke="none">
<path d="M28070 30178 c-121 -12 -155 -40 -117 -92 13 -18 22 -18 163 -6 82 6
155 17 162 22 6 6 12 23 12 39 0 51 -30 56 -220 37z"/>
<path d="M28469 30178 c-45 -36 -21 -84 44 -92 225 -28 247 -29 267 -11 25 22
25 37 3 63 -14 16 -37 23 -98 31 -171 21 -200 22 -216 9z"/>
<path d="M27600 30089 c-123 -35 -150 -50 -150 -84 0 -14 9 -30 23 -39 20 -13
33 -11 137 18 63 19 127 36 142 40 19 4 30 15 34 33 17 66 -35 75 -186 32z"/>
<path d="M28973 30099 c-26 -10 -38 -42 -24 -67 9 -17 131 -68 254 -105 47
-14 72 -1 72 39 0 36 -30 54 -173 104 -76 27 -113 35 -129 29z"/>
<path d="M27122 29906 c-135 -67 -154 -85 -132 -126 17 -32 55 -24 190 43 109
54 125 65 128 89 2 18 -4 31 -20 42 -12 9 -25 16 -29 16 -4 0 -65 -29 -137
-64z"/>
<path d="M29418 29879 c-11 -6 -18 -22 -18 -38 0 -23 13 -39 70 -85 38 -31 84
-74 101 -96 47 -58 109 -53 109 8 0 27 -83 119 -165 182 -54 42 -68 46 -97 29z"/>
<path d="M20686 29800 c5 -4 518 -162 1139 -350 622 -189 1135 -345 1142 -349
6 -3 -94 -76 -223 -161 -128 -85 -234 -157 -234 -161 0 -3 156 -91 348 -196
222 -122 349 -186 353 -179 13 22 222 926 216 932 -3 3 -615 109 -1359 235
-744 126 -1362 231 -1372 233 -10 3 -15 1 -10 -4z"/>
<path d="M26729 29678 c-112 -78 -169 -128 -169 -148 0 -24 26 -50 50 -50 18
0 235 151 252 175 4 5 8 16 8 23 0 16 -36 52 -53 52 -8 0 -47 -23 -88 -52z"/>
<path d="M29726 29484 c-20 -19 -20 -38 -1 -95 8 -24 20 -84 27 -134 12 -85
14 -90 42 -100 24 -8 31 -6 48 15 17 21 18 33 13 85 -10 87 -42 206 -62 227
-20 22 -46 23 -67 2z"/>
<path d="M26366 29378 c-82 -79 -166 -181 -166 -202 0 -29 18 -46 48 -46 34 0
221 195 222 231 1 57 -53 66 -104 17z"/>
<path d="M26067 29018 c-16 -13 -138 -207 -150 -242 -11 -27 18 -66 48 -66 15
0 30 9 39 23 115 185 146 237 146 246 0 15 -37 51 -53 51 -7 0 -21 -6 -30 -12z"/>
<path d="M33705 28982 c-157 -87 -303 -217 -344 -307 -28 -61 -37 -145 -21
-203 16 -60 83 -127 147 -145 47 -14 48 -15 55 -63 11 -79 17 -93 53 -133 41
-45 114 -80 186 -88 41 -5 52 -11 64 -33 40 -78 162 -138 256 -127 81 10 189
77 189 118 0 30 -16 30 -48 -1 -75 -71 -182 -91 -269 -49 -37 18 -93 73 -93
91 0 3 15 9 33 12 59 11 137 55 191 106 63 60 86 102 86 160 0 157 -182 175
-312 31 -57 -63 -82 -132 -76 -207 l5 -54 -32 0 c-41 0 -134 48 -159 82 -11
16 -21 49 -24 80 l-4 54 63 10 c137 24 291 110 329 184 51 100 -5 230 -99 230
-101 0 -271 -175 -316 -325 -15 -49 -32 -53 -91 -25 -116 57 -134 204 -39 333
47 62 154 150 263 213 82 48 106 75 72 81 -8 2 -37 -10 -65 -25z m224 -323
c24 -26 35 -69 26 -108 -15 -68 -155 -158 -289 -185 -78 -16 -80 -9 -33 88 43
87 93 146 161 192 60 40 105 45 135 13z m196 -269 c18 -15 28 -63 20 -100 -16
-72 -154 -178 -256 -195 -36 -7 -36 -7 -43 36 -9 57 17 137 62 190 63 73 171
108 217 69z"/>
<path d="M29756 28985 c-8 -8 -20 -41 -26 -73 -6 -31 -20 -87 -31 -124 -25
-86 -24 -104 5 -123 50 -33 72 2 116 185 24 103 24 114 4 134 -20 20 -48 20
-68 1z"/>
<path d="M25816 28571 c-3 -5 -27 -62 -52 -127 -63 -163 -61 -199 7 -192 33 3
34 5 72 108 57 153 63 178 51 198 -12 19 -69 29 -78 13z"/>
<path d="M29598 28503 c-9 -10 -26 -38 -38 -61 -12 -24 -39 -73 -61 -109 -47
-77 -49 -112 -6 -127 36 -13 50 1 127 134 59 104 71 145 48 168 -17 17 -53 15
-70 -5z"/>
<path d="M23753 28369 c-12 -4 -24 -17 -28 -29 -7 -23 6 -48 63 -118 31 -38
39 -43 71 -40 32 3 36 6 39 35 3 26 -6 43 -44 90 -52 64 -69 74 -101 62z"/>
<path d="M38865 28356 c-83 -26 -185 -114 -222 -190 l-16 -34 -66 26 c-95 37
-196 37 -271 0 -31 -15 -74 -43 -97 -63 -49 -42 -116 -140 -139 -206 -17 -46
-18 -47 -67 -52 -117 -14 -256 -114 -315 -225 -41 -79 -56 -150 -49 -241 8
-120 67 -245 99 -213 9 9 5 24 -14 64 -100 205 -17 446 185 538 34 15 76 30
94 34 l31 5 -5 -114 c-16 -317 130 -566 332 -566 124 0 195 90 195 246 0 229
-185 450 -394 472 -31 3 -56 10 -56 15 0 33 62 131 119 189 74 73 129 99 216
99 53 0 175 -35 175 -50 0 -5 -8 -39 -17 -77 -12 -50 -17 -108 -16 -218 1
-225 33 -347 115 -441 109 -124 336 -107 387 29 26 68 2 209 -58 342 -58 128
-153 244 -269 330 l-79 58 21 36 c32 55 105 124 161 151 39 19 66 25 120 25
219 -1 381 -167 488 -500 40 -125 63 -227 81 -347 10 -72 14 -83 31 -83 18 0
20 6 17 50 -15 235 -149 614 -265 750 -121 141 -306 207 -452 161z m-64 -416
c85 -85 102 -107 151 -207 85 -168 106 -293 63 -360 -26 -38 -99 -67 -156 -60
-178 21 -260 199 -246 535 3 75 11 156 17 179 l12 43 32 -18 c17 -9 74 -60
127 -112z m-553 -180 c123 -57 222 -196 245 -340 30 -193 -81 -308 -230 -240
-116 52 -207 247 -208 445 0 55 4 117 8 139 l8 39 57 -7 c31 -4 85 -20 120
-36z"/>
<path d="M25662 28087 c-13 -15 -52 -225 -52 -278 0 -44 26 -65 66 -55 26 7
24 0 54 178 24 143 20 168 -29 168 -16 0 -33 -6 -39 -13z"/>
<path d="M29242 27999 c-53 -56 -101 -107 -105 -115 -11 -20 1 -52 24 -64 29
-16 64 8 150 102 97 106 105 122 84 154 -27 42 -50 30 -153 -77z"/>
<path d="M23992 28078 c-7 -7 -12 -24 -12 -39 0 -23 19 -44 107 -118 75 -65
114 -91 133 -91 55 0 68 54 23 94 -16 13 -65 55 -110 95 -82 71 -115 85 -141
59z"/>
<path d="M24392 27768 c-7 -7 -12 -25 -12 -40 0 -31 40 -61 187 -140 64 -35
78 -39 99 -29 32 14 33 63 2 86 -60 43 -225 135 -243 135 -12 0 -26 -5 -33
-12z"/>
<path d="M28920 27710 c-30 -22 -82 -58 -116 -81 -67 -43 -82 -66 -65 -97 26
-48 73 -32 214 73 75 56 87 69 87 95 0 29 -22 50 -53 50 -7 0 -38 -18 -67 -40z"/>
<path d="M32903 27522 l-183 -115 6 -136 c4 -75 9 -176 13 -225 l6 -88 195
-101 195 -101 120 80 c66 44 148 98 183 120 l62 39 -5 65 c-2 36 -7 135 -11
221 l-6 157 -194 101 c-106 55 -194 101 -196 100 -2 0 -85 -53 -185 -117z
m325 -145 c177 -116 94 -391 -118 -391 -91 0 -159 46 -199 134 -25 54 -26 84
-6 141 37 103 109 152 216 147 52 -3 75 -9 107 -31z"/>
<path d="M25599 27583 c-10 -12 -14 -50 -14 -145 0 -85 -4 -128 -11 -128 -6 0
-59 14 -117 30 -59 17 -114 30 -122 30 -21 0 -45 -42 -39 -67 7 -26 27 -35
177 -73 120 -32 152 -32 161 -2 3 9 16 22 28 27 22 10 23 15 25 160 2 125 -1
152 -14 167 -20 23 -56 23 -74 1z"/>
<path d="M24830 27521 c-27 -51 -13 -63 129 -121 141 -57 176 -62 193 -25 19
41 -6 61 -141 115 -135 55 -165 60 -181 31z"/>
<path d="M35823 27520 c-103 -15 -202 -84 -255 -176 -16 -30 -33 -54 -37 -54
-4 0 -199 43 -435 95 l-428 95 -41 -22 c-23 -13 -43 -26 -45 -30 -2 -5 -8 -8
-14 -8 -5 0 -24 -11 -42 -25 -18 -14 -38 -25 -44 -25 -7 0 -12 -4 -12 -10 0
-5 -5 -10 -11 -10 -6 0 -25 -11 -43 -25 -18 -14 -38 -25 -44 -25 -7 0 -12 -4
-12 -10 0 -5 -5 -10 -11 -10 -6 0 -25 -11 -43 -25 -18 -14 -38 -25 -44 -25 -7
0 -12 -4 -12 -10 0 -5 -5 -10 -11 -10 -6 0 -17 -6 -25 -14 -7 -8 -18 -16 -24
-18 -5 -1 -39 -136 -75 -298 -36 -162 -68 -303 -71 -313 -6 -19 -25 -19 -106
1 -21 6 -38 8 -38 6 0 -3 -8 0 -18 5 -17 9 -21 -2 -48 -127 l-30 -137 -49 0
-49 0 -67 -300 c-37 -165 -70 -312 -73 -327 -5 -25 -3 -27 39 -34 27 -4 45
-12 45 -19 0 -7 -11 -62 -25 -122 -14 -59 -27 -117 -30 -129 -4 -18 2 -22 60
-33 36 -6 76 -16 89 -20 l23 -9 -64 -284 c-35 -156 -62 -292 -60 -303 2 -11
70 -125 151 -253 103 -160 155 -234 170 -237 157 -37 2406 -536 2421 -537 11
-1 123 65 248 145 126 80 233 147 237 149 5 2 32 107 61 233 28 127 58 260 67
298 8 37 20 67 26 67 6 0 47 -9 92 -19 l81 -18 30 136 29 136 30 -3 c16 -2 38
-4 48 -5 17 -2 27 31 91 323 79 355 79 330 13 344 -34 8 -34 10 -3 148 31 137
31 148 3 150 -31 2 -37 3 -82 16 -22 6 -43 9 -48 6 -24 -15 -14 53 47 330 37
167 65 310 62 318 -4 7 -47 76 -96 153 -50 77 -116 181 -147 230 l-57 90 -426
94 c-234 52 -431 96 -437 98 -6 2 -14 33 -16 67 -10 122 -87 238 -190 288 -47
23 -74 30 -153 42 -11 2 -43 0 -72 -4z m-724 -889 c220 -68 362 -298 322 -521
-51 -283 -337 -453 -605 -360 -205 70 -339 291 -306 504 43 280 323 460 589
377z m1288 -285 c170 -45 307 -187 342 -354 54 -258 -120 -510 -383 -555 -222
-38 -456 117 -516 341 -17 67 -14 189 8 258 71 229 322 370 549 310z m-1704
-1225 c45 -11 127 -29 182 -41 55 -12 132 -30 170 -40 39 -10 84 -21 100 -23
17 -3 53 -10 80 -17 28 -6 61 -14 75 -16 14 -3 41 -9 60 -14 19 -5 47 -11 63
-14 15 -3 35 -7 45 -10 9 -3 28 -7 42 -10 14 -2 48 -10 75 -16 28 -6 59 -13
70 -16 10 -2 91 -20 180 -40 88 -20 171 -38 185 -41 14 -2 50 -10 80 -18 30
-8 68 -16 84 -19 16 -3 30 -6 31 -8 2 -2 -15 -85 -38 -185 -34 -153 -43 -183
-58 -183 -10 0 -20 3 -22 8 -9 14 16 147 30 157 7 5 16 34 20 64 5 46 3 56
-12 67 -54 40 -95 3 -100 -89 -4 -66 -31 -177 -43 -177 -17 0 -1484 329 -1489
334 -4 4 58 311 72 354 6 16 22 15 118 -7z"/>
<path d="M34866 26589 c-63 -15 -152 -68 -200 -119 -192 -206 -132 -533 121
-653 64 -30 75 -32 178 -32 108 0 113 1 187 38 258 127 307 462 97 664 -98 93
-248 134 -383 102z m262 -78 c75 -41 135 -103 170 -179 22 -47 27 -71 27 -142
0 -75 -4 -93 -32 -152 -39 -82 -99 -142 -183 -182 -55 -26 -76 -30 -145 -30
-66 0 -91 5 -142 28 -69 31 -147 106 -181 172 -31 60 -45 154 -33 218 25 136
100 228 228 282 49 21 71 24 143 21 74 -3 93 -8 148 -36z"/>
<path d="M34863 26482 c-259 -93 -284 -444 -40 -574 36 -20 57 -23 142 -23 92
0 104 2 154 30 177 98 214 337 74 486 -81 86 -220 120 -330 81z m77 -137 c23
-36 45 -65 48 -65 2 0 34 19 70 41 37 23 67 38 69 33 2 -5 16 -29 33 -54 l30
-45 -70 -43 -70 -44 19 -27 c10 -14 30 -45 44 -68 l26 -41 -48 -31 c-26 -17
-51 -31 -54 -31 -4 0 -25 29 -48 65 -25 41 -45 62 -52 58 -7 -4 -35 -22 -64
-40 -29 -18 -56 -33 -60 -33 -9 0 -63 85 -63 99 0 5 29 26 65 48 l65 40 -40
62 c-22 34 -40 65 -40 70 0 6 87 70 96 71 1 0 21 -29 44 -65z"/>
<path d="M36190 26299 c-208 -41 -359 -260 -321 -468 34 -184 161 -309 344
-341 246 -43 477 153 477 405 0 262 -239 455 -500 404z m232 -71 c79 -36 142
-98 181 -177 29 -59 32 -74 32 -156 0 -76 -4 -99 -27 -147 -75 -161 -260 -251
-422 -204 -76 22 -121 52 -179 115 -67 76 -90 143 -85 256 4 72 10 100 31 141
47 92 143 170 241 195 59 15 168 4 228 -23z"/>
<path d="M36183 26192 c-28 -10 -70 -31 -93 -46 -80 -53 -138 -182 -126 -280
39 -308 441 -386 591 -115 27 49 30 63 30 144 0 78 -4 97 -27 141 -71 136
-238 205 -375 156z m67 -137 c23 -36 46 -65 52 -65 5 0 32 16 61 35 28 19 57
35 63 35 7 0 20 -12 29 -27 51 -78 53 -66 -20 -112 -36 -23 -65 -44 -65 -48 0
-3 18 -34 40 -69 l40 -63 -44 -31 c-25 -16 -49 -30 -55 -30 -6 0 -29 29 -51
65 l-41 64 -69 -44 -69 -44 -30 50 c-17 27 -31 53 -31 57 1 4 30 25 66 47 l65
41 -41 63 c-23 35 -40 67 -38 72 2 6 60 48 94 68 1 1 21 -28 44 -64z"/>
<path d="M34605 25097 c-2 -6 -15 -64 -29 -127 -27 -123 -26 -130 25 -130 25
0 27 4 54 126 15 69 26 127 24 128 -2 2 -19 6 -37 9 -22 5 -34 3 -37 -6z"/>
<path d="M34776 25058 c-11 -33 -55 -243 -51 -246 2 -2 19 -6 38 -9 l34 -4 27
126 c16 69 27 128 25 129 -2 2 -19 7 -37 11 -23 5 -33 3 -36 -7z"/>
<path d="M34675 25007 c-29 -116 -52 -233 -47 -238 4 -4 21 -10 38 -13 l30 -7
28 127 c15 69 25 128 23 130 -2 3 -18 9 -36 14 -27 8 -32 6 -36 -13z"/>
<path d="M34946 25019 c-10 -30 -55 -244 -52 -247 2 -1 19 -5 38 -8 l34 -6 28
127 c16 69 26 128 24 130 -3 3 -19 8 -36 11 -22 5 -33 2 -36 -7z"/>
<path d="M35115 24977 c-34 -144 -51 -233 -46 -238 3 -4 20 -10 37 -13 l31 -7
27 126 c16 69 26 128 23 131 -2 2 -18 9 -36 14 -27 8 -32 6 -36 -13z"/>
<path d="M34845 24968 c-29 -116 -52 -234 -47 -239 13 -11 61 -19 66 -11 13
21 57 245 49 252 -4 4 -20 10 -35 14 -23 5 -29 2 -33 -16z"/>
<path d="M35286 24943 c-6 -25 -47 -215 -49 -232 -2 -16 45 -32 62 -22 15 10
66 240 55 250 -5 5 -21 11 -36 15 -20 5 -28 2 -32 -11z"/>
<path d="M35015 24928 c-61 -261 -60 -248 -4 -248 25 0 28 5 42 68 36 162 40
182 36 186 -2 2 -18 7 -36 11 -28 6 -33 4 -38 -17z"/>
<path d="M35455 24898 c-23 -96 -52 -234 -50 -236 1 -1 17 -7 34 -12 28 -8 33
-6 40 13 13 33 55 236 50 241 -2 2 -18 7 -36 11 -28 6 -33 4 -38 -17z"/>
<path d="M35185 24888 c-3 -13 -16 -70 -29 -128 -26 -113 -25 -120 25 -120 25
0 28 5 48 94 36 157 37 162 10 169 -39 11 -48 8 -54 -15z"/>
<path d="M35625 24858 c-40 -168 -51 -234 -41 -240 6 -4 23 -8 38 -8 25 0 27
4 47 91 36 156 37 165 10 172 -39 11 -48 8 -54 -15z"/>
<path d="M35355 24848 c-52 -229 -53 -233 -29 -242 45 -17 52 -9 73 85 36 156
37 165 10 172 -39 11 -48 8 -54 -15z"/>
<path d="M35510 24742 c-12 -54 -25 -111 -30 -128 -7 -28 -5 -33 17 -43 43
-20 50 -14 66 57 8 37 21 93 28 125 7 31 10 59 7 62 -3 3 -19 10 -36 14 l-31
9 -21 -96z"/>
<path d="M35795 24818 c-52 -229 -53 -233 -29 -242 44 -17 52 -9 72 82 34 148
36 163 21 173 -27 17 -58 10 -64 -13z"/>
<path d="M35680 24702 c-12 -53 -25 -111 -30 -129 -8 -30 -6 -33 27 -44 19 -6
36 -9 38 -7 12 11 57 250 49 257 -5 5 -21 11 -36 15 -26 6 -27 5 -48 -92z"/>
<path d="M35965 24778 c-56 -244 -55 -234 -14 -243 17 -4 32 -5 35 -3 10 10
56 239 50 253 -3 9 -18 15 -35 15 -24 0 -32 -5 -36 -22z"/>
<path d="M35851 24670 c-40 -173 -40 -172 10 -184 26 -6 27 -4 42 62 29 130
41 191 36 196 -2 2 -18 7 -35 10 l-32 7 -21 -91z"/>
<path d="M28417 27422 c-98 -43 -129 -61 -133 -78 -8 -33 12 -64 42 -64 26 0
217 78 262 106 24 16 30 62 10 82 -20 20 -47 13 -181 -46z"/>
<path d="M27950 27265 c-69 -18 -131 -38 -138 -45 -7 -6 -12 -26 -10 -43 3
-29 7 -32 40 -35 40 -3 262 51 284 69 21 17 17 67 -5 79 -25 13 -25 13 -171
-25z"/>
<path d="M25802 27238 c-16 -16 -15 -63 1 -76 14 -12 232 -52 284 -52 44 0 64
36 41 72 -13 20 -34 26 -154 46 -162 26 -156 26 -172 10z"/>
<path d="M27530 27184 c-8 -2 -57 -8 -107 -13 -103 -9 -123 -20 -123 -62 0
-47 23 -52 172 -34 161 19 166 20 174 50 10 42 -11 65 -59 64 -23 -1 -49 -3
-57 -5z"/>
<path d="M26308 27170 c-21 -13 -24 -63 -5 -79 15 -12 169 -31 258 -31 59 0
79 11 79 45 0 39 -29 52 -130 59 -52 4 -115 9 -140 12 -25 2 -53 0 -62 -6z"/>
<path d="M26807 27132 c-20 -22 -22 -53 -5 -70 13 -13 305 -17 324 -4 20 14
25 45 9 68 -15 23 -19 24 -164 24 -131 0 -150 -2 -164 -18z"/>
<path d="M25629 27079 c-23 -23 -23 -27 12 -204 11 -55 25 -105 31 -112 15
-18 63 -16 78 2 13 16 12 27 -36 278 -6 31 -29 57 -50 57 -8 0 -23 -9 -35 -21z"/>
<path d="M31560 26756 c-14 -7 -62 -31 -107 -52 -46 -21 -83 -41 -83 -45 0 -4
-15 -13 -32 -20 -18 -7 -39 -19 -46 -26 -7 -7 -20 -13 -28 -13 -8 0 -14 -4
-14 -10 0 -5 -4 -10 -10 -10 -11 0 -103 -62 -108 -72 -2 -5 -8 -8 -14 -8 -5 0
-15 -6 -22 -12 -8 -7 -23 -20 -36 -28 -12 -8 -32 -24 -45 -35 -13 -11 -47 -40
-76 -65 -171 -145 -383 -374 -504 -546 -307 -431 -495 -886 -572 -1384 -24
-158 -24 -504 0 -645 120 -695 544 -1262 1189 -1591 l129 -65 -6 -37 c-4 -20
-10 -50 -15 -67 -4 -16 -13 -57 -20 -90 -7 -33 -16 -73 -21 -89 -13 -41 -11
-73 4 -79 6 -2 54 -13 104 -23 74 -15 92 -21 88 -34 -21 -65 -104 -465 -98
-471 15 -13 395 -91 403 -83 4 5 62 257 129 559 67 303 126 570 132 595 6 25
14 63 19 85 5 22 18 78 29 125 11 47 27 121 37 165 9 44 20 96 24 115 4 19 13
60 20 90 7 30 16 71 20 90 67 294 66 287 44 294 -46 14 -387 86 -391 83 -2 -2
-27 -111 -56 -241 -43 -196 -55 -236 -69 -236 -10 0 -56 9 -104 20 -65 15 -89
18 -95 9 -4 -6 -12 -39 -19 -73 -7 -33 -16 -74 -20 -91 -4 -16 -13 -57 -20
-90 -7 -33 -14 -66 -16 -73 -5 -16 -95 32 -227 121 -522 348 -816 934 -768
1529 37 458 211 907 514 1333 227 318 509 569 818 728 57 30 110 56 117 58 10
3 3 25 -26 79 -48 89 -79 187 -88 275 -7 70 -16 77 -64 51z"/>
<path d="M31994 26712 c-45 -36 -56 -90 -28 -143 18 -36 74 -63 114 -54 34 7
75 51 84 87 8 35 -14 90 -45 112 -31 21 -98 20 -125 -2z"/>
<path d="M25751 26594 c-19 -13 -22 -23 -18 -49 7 -46 86 -242 104 -260 17
-18 54 -20 71 -3 20 20 14 46 -33 165 -25 61 -45 117 -45 122 0 9 -38 41 -50
41 -3 0 -16 -7 -29 -16z"/>
<path d="M4325 26354 c-260 -35 -479 -102 -705 -216 -310 -156 -551 -367 -736
-646 -409 -615 -411 -1493 -4 -2112 85 -129 159 -217 276 -330 308 -296 692
-479 1149 -546 147 -22 487 -25 620 -6 431 62 791 215 1090 463 363 303 586
702 661 1185 20 131 23 429 5 554 -100 700 -541 1254 -1208 1519 -174 69 -381
119 -575 140 -132 15 -451 12 -573 -5z m500 -809 c192 -34 369 -124 520 -267
170 -161 279 -357 331 -598 25 -116 26 -372 1 -486 -115 -535 -526 -893 -1028
-894 -491 0 -914 339 -1046 838 -34 128 -43 362 -19 497 80 463 422 820 872
909 94 19 263 19 369 1z"/>
<path d="M17100 25848 l-1 -473 83 -772 83 -773 282 0 281 0 6 38 c3 20 40
351 81 735 l75 699 0 509 0 509 -445 0 -445 0 0 -472z"/>
<path d="M25962 26134 c-13 -9 -22 -26 -22 -40 0 -39 137 -248 169 -259 39
-12 78 26 63 62 -12 29 -127 206 -150 231 -25 26 -31 27 -60 6z"/>
<path d="M26263 25730 c-30 -12 -38 -46 -18 -76 28 -43 157 -175 185 -189 15
-8 37 -11 49 -8 20 5 37 40 29 62 -4 13 -209 221 -217 220 -3 0 -16 -4 -28 -9z"/>
<path d="M15260 25500 c-551 -58 -912 -335 -985 -757 -53 -302 32 -578 228
-746 165 -141 322 -212 741 -338 327 -98 413 -135 480 -209 41 -46 50 -74 44
-135 -22 -193 -367 -231 -806 -89 -125 40 -369 157 -475 228 -38 25 -71 46
-73 46 -2 0 -71 -135 -154 -300 l-150 -299 63 -44 c275 -193 633 -320 1011
-358 151 -15 470 -7 589 15 481 90 794 345 873 711 24 115 22 316 -4 417 -48
178 -156 325 -325 440 -142 97 -323 167 -789 307 -308 93 -398 156 -398 276 0
77 37 126 125 167 43 20 66 23 170 23 221 0 452 -66 778 -222 75 -37 139 -64
141 -62 6 7 316 598 316 603 0 7 -140 80 -237 124 -191 86 -431 155 -647 187
-132 19 -400 27 -516 15z"/>
<path d="M8370 25490 c-302 -29 -579 -123 -805 -271 -104 -68 -296 -260 -364
-364 -155 -237 -228 -482 -238 -800 -14 -468 117 -828 406 -1116 212 -211 477
-347 792 -408 431 -83 874 -31 1224 142 344 170 608 479 710 832 54 185 68
308 62 540 -6 228 -19 314 -76 485 -171 510 -613 856 -1206 945 -126 19 -383
26 -505 15z m332 -755 c240 -50 421 -244 490 -525 30 -121 30 -330 0 -453 -68
-276 -237 -456 -481 -513 -98 -24 -274 -14 -363 19 -202 74 -344 234 -410 463
-20 69 -23 101 -23 259 0 208 15 278 87 419 52 101 173 226 265 274 127 67
290 88 435 57z"/>
<path d="M12370 25489 c-252 -31 -464 -135 -643 -315 l-87 -88 0 187 0 187
-470 0 -470 0 0 -1995 0 -1995 470 0 470 0 0 715 c0 393 2 715 4 715 2 0 35
-32 73 -71 94 -98 180 -161 298 -219 415 -205 995 -137 1367 158 246 196 399
459 474 817 32 151 44 474 24 643 -14 122 -57 308 -93 403 -171 454 -539 763
-1003 843 -114 20 -318 27 -414 15z m74 -736 c232 -54 411 -249 478 -520 27
-110 30 -319 5 -429 -59 -270 -215 -457 -441 -530 -68 -23 -99 -27 -196 -27
-97 0 -128 4 -195 26 -159 52 -282 162 -361 322 -71 144 -87 221 -87 410 0
190 16 265 90 415 83 167 236 294 405 336 68 17 225 15 302 -3z"/>
<path d="M26616 25374 c-39 -38 -20 -62 124 -160 96 -65 136 -78 160 -50 27
34 7 59 -114 143 -66 46 -128 83 -137 83 -10 0 -25 -7 -33 -16z"/>
<path d="M27046 25107 c-12 -9 -17 -23 -14 -42 3 -26 13 -35 88 -73 47 -23
109 -51 139 -62 50 -19 55 -19 78 -5 27 18 29 62 3 76 -49 26 -255 119 -265
119 -6 0 -19 -6 -29 -13z"/>
<path d="M39029 24995 c-4 -134 -32 -251 -84 -342 l-24 -44 24 -9 c14 -5 76
-34 138 -64 574 -276 935 -807 976 -1436 14 -209 -8 -439 -60 -642 -95 -376
-326 -714 -654 -958 -256 -190 -613 -330 -953 -374 -136 -18 -272 -21 -272 -7
0 5 14 69 30 142 21 93 27 135 19 139 -6 4 -50 15 -97 25 -48 10 -91 21 -95
25 -4 3 16 113 45 243 28 130 50 239 47 241 -5 6 -412 97 -414 93 0 -1 -48
-214 -105 -473 l-104 -471 -556 -6 c-305 -4 -2997 -7 -5981 -7 -4716 0 -5436
-2 -5495 -14 -337 -72 -603 -306 -707 -624 -19 -59 -39 -127 -43 -152 -4 -25
-9 -2142 -11 -4705 -1 -2563 -4 -4666 -5 -4673 -2 -7 -118 98 -259 235 -140
136 -370 356 -510 488 -140 132 -378 357 -529 500 -396 374 -545 514 -906 847
-177 164 -419 391 -539 505 -366 352 -446 426 -450 421 -6 -6 166 -219 321
-398 402 -460 846 -896 1544 -1515 422 -374 890 -798 1079 -975 84 -80 175
-164 202 -188 l49 -43 2 -817 3 -817 9483 -3 9482 -2 0 4524 0 4524 28 10 c15
5 54 18 87 28 33 9 67 21 75 25 8 4 46 19 84 34 37 14 125 55 194 91 l126 64
63 -62 63 -62 272 274 c150 152 311 309 357 349 l85 74 66 -70 c36 -38 89
-104 117 -147 l52 -77 16 24 c19 30 35 83 35 117 0 73 -20 102 -166 250 l-144
146 79 157 c54 106 97 210 134 324 l55 168 214 5 c214 5 215 5 256 33 23 15
52 46 64 70 23 41 23 48 26 447 2 276 0 417 -8 443 -6 20 -25 53 -42 73 -57
65 -71 68 -302 74 l-208 5 -55 168 c-37 114 -80 218 -134 325 l-79 157 140
140 c169 170 189 210 159 320 -9 33 -59 89 -298 328 -164 166 -303 297 -326
309 -51 27 -136 28 -185 4 -19 -10 -96 -79 -171 -153 l-137 -135 -159 79
c-104 52 -216 98 -321 133 l-160 52 -4 207 c-3 204 -3 206 -31 253 -18 31 -44
57 -75 75 l-47 28 -426 0 -426 0 -49 -30 c-31 -20 -58 -47 -74 -75 -24 -43
-25 -53 -28 -252 l-3 -206 -87 -27 c-148 -45 -272 -95 -415 -168 l-138 -70
-137 135 c-75 75 -153 144 -172 153 -49 25 -134 24 -185 -3 -23 -12 -162 -143
-326 -309 -298 -299 -309 -313 -309 -393 0 -73 19 -102 166 -250 l144 -146
-79 -156 c-50 -100 -97 -213 -131 -317 l-54 -161 -583 0 c-321 0 -583 3 -583
8 0 4 40 35 88 70 276 197 514 476 665 778 199 398 276 899 211 1365 -98 710
-518 1294 -1164 1619 -69 34 -137 69 -152 77 -16 8 -28 12 -28 8 0 -3 -11 2
-25 11 -14 9 -25 13 -25 9 0 -4 -6 -3 -12 2 -7 6 -21 13 -30 16 -15 5 -18 0
-19 -38z m4243 -3105 c477 -100 876 -437 1057 -892 225 -566 43 -1251 -433
-1634 -74 -59 -218 -154 -259 -170 -16 -6 -17 33 -17 513 0 319 -4 542 -11
579 -64 364 -317 645 -680 756 -73 22 -84 22 -656 26 -457 2 -583 6 -583 15 0
21 99 186 156 263 75 99 245 260 345 326 193 128 399 206 629 238 102 14 341
4 452 -20z m-6509 -3304 c206 -19 220 -31 210 -172 l-6 -79 56 -23 c30 -13 85
-41 121 -63 l66 -40 66 56 c66 56 95 66 135 45 10 -6 69 -70 129 -142 147
-176 147 -189 12 -300 l-33 -27 36 -104 c19 -57 35 -115 35 -129 0 -25 3 -26
77 -33 151 -14 158 -25 138 -241 -8 -88 -15 -164 -15 -171 0 -6 -12 -26 -27
-43 l-27 -33 -91 5 -92 5 -27 -63 c-15 -35 -43 -89 -62 -120 l-34 -57 45 -52
c92 -108 85 -137 -56 -255 -153 -128 -170 -140 -202 -140 -29 0 -66 31 -129
107 l-26 32 -61 -25 c-33 -14 -91 -32 -128 -41 -38 -9 -69 -17 -71 -19 -2 -1
-7 -39 -11 -83 -11 -108 -30 -131 -110 -131 -86 0 -283 20 -314 32 -45 17 -59
56 -51 146 l7 78 -88 42 c-48 23 -100 51 -115 62 -15 11 -32 20 -37 20 -6 0
-38 -22 -72 -50 -65 -52 -109 -64 -144 -37 -9 6 -64 68 -121 137 -98 116 -106
128 -106 168 0 46 7 55 87 122 l42 35 -34 100 c-19 55 -35 110 -35 121 0 32
-18 41 -98 46 -75 6 -114 26 -127 68 -3 10 1 93 10 186 21 227 30 240 168 229
l82 -6 42 88 c23 48 51 102 62 118 l20 30 -54 68 c-59 73 -67 105 -40 145 23
32 249 220 279 232 39 14 66 -1 128 -70 l55 -62 64 25 c58 23 95 34 171 51 25
6 27 11 33 73 8 82 21 119 49 138 25 18 32 18 219 1z m-6724 -606 c125 -13
200 -34 298 -81 140 -67 244 -181 299 -326 60 -159 57 -107 61 -1225 l4 -1028
138 0 c159 0 219 -13 298 -66 57 -39 114 -115 138 -184 17 -47 22 -165 10
-222 -20 -92 -101 -195 -186 -236 -64 -31 -135 -42 -275 -42 l-124 0 0 -315
c0 -332 -5 -383 -47 -472 -31 -68 -116 -145 -188 -172 -78 -29 -188 -44 -268
-37 -135 12 -230 70 -285 174 -57 106 -63 154 -69 504 l-6 317 -956 4 c-947 3
-957 3 -1039 25 -202 54 -291 144 -292 298 0 112 30 194 135 364 89 145 1445
2241 1490 2305 99 139 249 277 365 335 152 77 301 101 499 80z m4134 -4 c95
-34 116 -84 117 -277 l0 -146 115 -37 c64 -20 174 -66 246 -102 l131 -66 117
115 c128 126 152 138 233 116 35 -9 75 -44 250 -216 114 -113 219 -223 233
-244 15 -21 29 -56 32 -78 10 -71 -16 -115 -131 -230 l-104 -103 35 -59 c38
-64 119 -259 148 -356 l18 -63 146 0 c162 0 208 -12 249 -65 40 -51 44 -85 40
-415 -3 -310 -3 -316 -26 -347 -51 -71 -70 -78 -247 -81 l-160 -4 -38 -116
c-21 -64 -65 -173 -99 -240 l-60 -124 101 -102 c133 -136 155 -190 111 -280
-27 -56 -432 -460 -482 -480 -85 -36 -138 -12 -272 123 l-100 100 -70 -39
c-85 -46 -267 -121 -353 -145 l-62 -17 -3 -162 c-3 -162 -3 -163 -32 -200 -55
-73 -71 -76 -416 -76 -275 0 -309 2 -345 19 -86 39 -104 86 -105 277 l0 140
-127 43 c-71 23 -180 68 -243 101 l-115 58 -110 -108 c-120 -118 -159 -139
-232 -126 -33 7 -70 39 -276 244 -257 256 -266 269 -252 356 6 35 23 57 120
156 l113 115 -62 127 c-35 69 -80 178 -101 242 l-38 116 -146 0 c-162 0 -208
12 -249 65 -39 50 -43 91 -40 413 3 300 3 308 26 344 13 20 40 47 60 60 34 21
51 23 194 26 l156 4 37 114 c20 63 65 171 99 239 l61 125 -93 92 c-104 104
-127 136 -137 190 -14 75 2 98 247 345 195 195 237 233 273 243 76 21 113 3
239 -120 l111 -108 127 63 c70 35 179 80 243 100 l115 37 0 137 c0 75 5 153
11 174 12 46 68 103 112 116 54 15 615 13 660 -3z m5297 4 c344 -36 554 -201
629 -495 37 -149 41 -256 41 -1225 l0 -938 158 -3 c155 -4 159 -5 224 -37 77
-38 137 -100 176 -182 23 -48 27 -68 27 -155 0 -94 -2 -105 -33 -167 -40 -82
-111 -148 -190 -179 -47 -19 -82 -23 -209 -27 l-151 -4 -4 -332 c-4 -300 -6
-337 -25 -392 -52 -158 -165 -243 -353 -267 -202 -25 -350 41 -423 188 -48 95
-57 177 -57 505 l0 300 -902 0 c-953 0 -1027 3 -1156 46 -131 43 -200 105
-229 203 -30 105 -5 213 86 373 78 135 1508 2346 1561 2413 75 95 219 228 295
273 113 66 259 107 400 111 22 0 83 -4 135 -9z m-3998 -5609 c26 -10 26 -10
14 -63 l-12 -53 -67 4 c-110 5 -147 -22 -147 -109 l0 -39 103 -3 102 -3 0 -60
0 -60 -102 -3 -103 -3 -2 -232 -3 -232 -67 -3 -68 -3 0 353 c0 333 2 356 21
398 32 70 69 101 144 121 37 10 151 4 187 -10z m2548 -411 l0 -429 -37 -11
c-21 -6 -87 -14 -148 -17 -97 -4 -117 -2 -167 17 -75 28 -142 100 -164 178
-34 115 -4 273 64 345 61 64 164 90 260 64 l52 -14 0 138 0 137 63 10 c34 5
65 10 70 11 4 0 7 -192 7 -429z m-7335 314 c136 -52 192 -210 124 -351 -42
-87 -132 -129 -301 -140 l-98 -6 0 -134 0 -133 -70 0 -70 0 2 388 3 387 35 7
c19 3 100 5 180 4 114 -2 156 -7 195 -22z m3845 -79 l0 -85 100 0 100 0 0 -65
0 -65 -100 0 -100 0 0 -149 c0 -144 1 -151 24 -178 26 -30 73 -36 148 -20 l37
8 8 -48 c4 -26 8 -52 8 -58 0 -16 -76 -33 -151 -34 -92 -1 -148 26 -184 90
l-25 44 0 315 0 315 40 6 c22 3 52 7 68 8 l27 1 0 -85z m-3260 -101 c82 -48
100 -113 100 -373 0 -162 -2 -190 -16 -195 -8 -3 -66 -11 -127 -17 -225 -23
-332 36 -332 186 0 74 26 120 87 155 38 22 55 25 145 25 l103 0 0 33 c0 42
-35 78 -84 88 -20 3 -69 2 -108 -4 -40 -6 -73 -10 -74 -9 -1 1 -5 28 -9 59
l-7 56 43 11 c24 5 89 9 144 8 80 -2 107 -6 135 -23z m693 5 l57 -12 0 -267
c0 -147 -5 -292 -10 -321 -15 -77 -53 -128 -125 -164 -53 -27 -69 -30 -155
-30 -94 0 -200 19 -200 36 0 4 5 31 11 59 11 51 11 52 43 46 17 -4 67 -9 111
-12 102 -8 149 9 170 60 13 30 20 76 13 76 -2 0 -25 -7 -52 -15 -62 -19 -89
-19 -157 1 -69 21 -130 81 -154 154 -27 82 -18 201 22 271 35 62 90 106 160
125 53 16 172 12 266 -7z m584 -3 c86 -40 133 -135 133 -268 l0 -68 -190 0
c-212 0 -211 0 -170 -67 35 -58 115 -82 210 -65 30 6 62 13 71 17 19 7 25 -4
34 -67 7 -45 6 -46 -27 -58 -59 -21 -208 -25 -266 -6 -68 23 -134 83 -162 148
-31 71 -34 198 -6 278 23 65 102 150 156 167 65 20 160 15 217 -11z m853 13
c67 -15 107 -47 138 -109 27 -55 27 -56 27 -270 l0 -215 -67 -3 -66 -3 -4 203
c-4 220 -10 248 -58 268 -15 6 -53 10 -86 8 l-59 -3 -5 -235 -5 -235 -67 -3
-68 -3 0 290 0 290 53 10 c111 22 201 25 267 10z m695 -13 c103 -47 157 -142
159 -276 2 -189 -92 -306 -255 -318 -118 -8 -211 45 -267 152 -24 46 -27 62
-27 156 0 98 2 109 31 165 52 100 125 144 244 144 48 1 78 -5 115 -23z m1848
-9 c87 -52 137 -151 137 -276 0 -93 -24 -162 -77 -221 -61 -68 -126 -94 -219
-88 -158 10 -258 127 -258 303 -1 140 54 242 158 292 44 21 62 24 132 20 66
-3 89 -8 127 -30z m1247 22 c67 -15 107 -47 138 -109 27 -55 27 -56 27 -270
l0 -215 -67 -3 -66 -3 -4 203 c-4 220 -10 248 -58 268 -15 6 -53 10 -86 8
l-59 -3 -5 -235 -5 -235 -67 -3 -68 -3 0 290 0 290 53 10 c111 22 201 25 267
10z m-840 -176 c0 -98 4 -195 9 -216 18 -75 70 -105 157 -92 l44 6 2 237 3
237 68 3 67 3 -2 -293 -3 -293 -65 -12 c-81 -15 -213 -16 -263 -2 -50 14 -106
64 -131 119 -18 40 -21 70 -24 248 -2 111 -1 209 2 217 4 11 22 15 71 15 l65
0 0 -177z"/>
<path d="M36500 17974 c-103 -27 -180 -72 -260 -153 -84 -84 -129 -164 -155
-272 -93 -397 265 -765 666 -684 212 42 379 190 441 388 33 105 31 256 -4 349
-72 192 -216 325 -403 373 -74 19 -212 18 -285 -1z"/>
<path d="M29258 16243 l-577 -918 576 -3 c317 -1 578 -1 580 1 2 2 2 417 1
921 l-3 918 -577 -919z"/>
<path d="M33705 16859 c-259 -34 -533 -180 -692 -367 -288 -340 -349 -792
-159 -1187 160 -333 459 -556 821 -610 127 -19 201 -19 332 1 633 94 1055 721
899 1337 -106 415 -427 724 -846 812 -91 19 -267 26 -355 14z"/>
<path d="M38765 16358 c-281 -447 -542 -863 -582 -925 l-72 -113 585 0 584 0
0 925 c0 509 -1 925 -3 925 -1 0 -232 -365 -512 -812z"/>
<path d="M37694 11971 c-41 -25 -59 -76 -58 -166 0 -82 20 -126 67 -155 42
-26 80 -33 133 -25 l44 6 0 165 0 165 -35 15 c-48 20 -114 18 -151 -5z"/>
<path d="M30410 12039 l0 -132 84 6 c143 10 190 42 190 132 1 93 -49 125 -196
125 l-78 0 0 -131z"/>
<path d="M31090 11767 c-45 -16 -68 -55 -55 -94 14 -38 48 -53 128 -53 l67 0
0 74 c0 68 -2 74 -22 80 -34 9 -79 6 -118 -7z"/>
<path d="M31724 11980 c-80 -32 -109 -197 -48 -270 42 -50 99 -59 177 -28 l27
10 0 149 0 149 -67 -1 c-38 0 -78 -4 -89 -9z"/>
<path d="M32373 11985 c-34 -15 -58 -45 -68 -87 l-7 -28 121 0 c115 0 121 1
121 20 0 34 -28 79 -60 95 -36 18 -65 19 -107 0z"/>
<path d="M33923 11986 c-41 -19 -60 -49 -74 -119 -31 -151 56 -273 166 -237
58 19 87 68 93 153 5 89 -9 145 -47 181 -35 33 -92 42 -138 22z"/>
<path d="M35754 11990 c-61 -25 -92 -107 -81 -221 17 -189 224 -198 259 -11
13 68 0 150 -29 191 -28 41 -100 61 -149 41z"/>
<path d="M38655 24990 c-26 -10 -61 -49 -70 -78 -9 -32 12 -88 42 -112 42 -33
98 -27 139 14 24 24 34 43 34 65 0 82 -76 140 -145 111z"/>
<path d="M27523 24920 c-26 -11 -32 -60 -10 -79 20 -16 235 -71 279 -71 32 0
39 4 44 27 11 44 -6 56 -132 88 -65 17 -128 34 -139 37 -11 4 -30 3 -42 -2z"/>
<path d="M28596 24819 c-77 -10 -96 -21 -96 -53 0 -34 20 -46 75 -46 134 2
188 37 135 90 -11 11 -26 19 -32 19 -7 -1 -44 -6 -82 -10z"/>
<path d="M28002 24808 c-6 -6 -12 -22 -12 -35 0 -41 35 -52 185 -59 155 -8
170 -3 163 53 -4 33 -21 37 -203 47 -90 5 -123 4 -133 -6z"/>
<path d="M17464 23390 c-224 -33 -367 -189 -381 -416 -17 -259 134 -451 383
-487 147 -22 302 28 400 129 59 60 92 121 110 208 53 248 -63 472 -283 544
-71 24 -161 32 -229 22z"/>
<path d="M14782 20597 c-48 -51 -36 -128 23 -153 30 -12 39 -12 69 0 61 26 75
92 30 145 -33 40 -89 43 -122 8z"/>
<path d="M47440 20612 c-1 -14 -19 -94 -99 -444 -84 -370 -86 -383 -73 -374 8
5 57 10 479 52 133 13 171 20 163 29 -24 29 -219 390 -212 393 4 1 430 -50
947 -113 848 -104 1033 -124 940 -101 -27 7 -2036 535 -2112 556 -18 4 -33 5
-33 2z"/>
<path d="M14492 20597 c-88 -32 -140 -108 -149 -218 l-6 -69 -43 0 -44 0 0
-60 0 -60 45 0 45 0 0 -285 0 -285 75 0 75 0 2 283 3 282 93 3 92 3 0 59 0 60
-95 0 -95 0 0 40 c0 104 52 141 156 114 30 -8 57 -14 59 -14 3 0 5 31 5 70 l0
69 -37 10 c-49 14 -139 13 -181 -2z"/>
<path d="M16530 20413 l0 -197 -37 36 c-71 70 -177 99 -279 78 -77 -16 -120
-39 -171 -92 -63 -65 -86 -125 -91 -239 -5 -123 13 -189 71 -261 61 -74 133
-110 236 -116 99 -6 162 14 225 69 l46 41 0 -56 0 -56 75 0 75 0 0 495 0 495
-75 0 -75 0 0 -197z m-125 -232 c157 -71 163 -329 10 -409 -89 -46 -177 -33
-246 37 -112 111 -84 301 56 374 41 22 130 21 180 -2z"/>
<path d="M17790 20115 l0 -495 74 0 74 0 4 203 c3 167 7 209 22 244 60 142
265 165 326 38 18 -37 20 -63 20 -263 l0 -222 75 0 75 0 0 256 c0 288 -4 313
-62 378 -50 58 -103 78 -199 78 -98 0 -165 -28 -219 -90 l-40 -45 0 207 0 206
-75 0 -75 0 0 -495z"/>
<path d="M2711 20543 c1 -5 69 -213 152 -463 l152 -455 81 -3 81 -3 109 355
c60 195 111 353 113 350 3 -2 52 -161 110 -352 l106 -347 80 -3 80 -2 153 452
c83 250 152 459 152 466 0 8 -23 12 -78 12 l-79 0 -82 -277 c-46 -153 -94
-317 -109 -365 -14 -49 -28 -88 -31 -88 -3 0 -55 164 -115 365 l-109 365 -77
0 -76 0 -110 -369 c-60 -204 -112 -367 -115 -363 -5 6 -53 165 -206 685 l-15
47 -84 0 c-46 0 -84 -3 -83 -7z"/>
<path d="M7568 20536 c-38 -29 -44 -90 -12 -126 11 -13 9 -24 -11 -69 -14 -29
-25 -55 -25 -57 0 -2 18 -4 40 -4 37 0 42 4 80 60 55 82 65 110 50 155 -6 19
-20 40 -30 45 -26 14 -72 12 -92 -4z"/>
<path d="M7890 20400 l0 -100 -45 0 -45 0 0 -55 0 -55 44 0 44 0 4 -217 c3
-190 6 -223 22 -256 41 -83 152 -117 267 -83 86 25 86 25 65 94 l-19 60 -33
-14 c-50 -21 -107 -18 -130 7 -17 19 -19 38 -19 213 l0 191 103 3 102 3 0 54
0 55 -105 0 -105 0 0 100 0 100 -75 0 -75 0 0 -100z"/>
<path d="M12650 20400 l0 -100 -50 0 -50 0 0 -55 0 -55 50 0 50 0 0 -212 c0
-186 3 -218 19 -254 34 -75 104 -110 205 -102 69 6 151 41 143 63 -3 7 -11 31
-18 54 -14 46 -16 46 -79 27 -52 -16 -82 -8 -105 27 -13 20 -15 54 -13 208 l3
184 103 3 102 3 0 54 0 55 -105 0 -105 0 0 100 0 100 -75 0 -75 0 0 -100z"/>
<path d="M17280 20400 l0 -100 -50 0 -50 0 0 -54 0 -55 48 -3 47 -3 5 -225 c6
-251 6 -253 77 -307 33 -25 44 -28 117 -28 62 0 92 5 128 22 l47 22 -20 60
-21 61 -28 -15 c-16 -8 -49 -15 -74 -15 -73 0 -76 10 -76 237 l0 193 100 0
100 0 0 55 0 55 -100 0 -100 0 0 100 0 100 -75 0 -75 0 0 -100z"/>
<path d="M4338 20329 c-114 -16 -209 -86 -257 -188 -20 -45 -27 -75 -29 -148
-6 -134 14 -190 93 -270 52 -52 72 -64 129 -82 143 -44 321 -9 400 77 18 20
17 22 -15 61 -34 41 -52 50 -64 31 -4 -6 -30 -22 -58 -37 -72 -37 -163 -39
-227 -3 -45 25 -96 88 -102 125 -3 20 3 20 261 23 l264 2 -6 88 c-10 181 -94
295 -232 317 -76 12 -100 12 -157 4z m165 -144 c42 -20 87 -86 87 -128 l0 -27
-195 0 c-149 0 -195 3 -195 13 1 24 38 92 63 115 57 53 162 65 240 27z"/>
<path d="M5454 20330 c-176 -25 -294 -167 -294 -356 0 -146 65 -256 188 -316
63 -31 73 -33 172 -33 98 0 110 2 170 32 36 18 78 46 95 63 l29 30 -39 40
c-44 45 -55 48 -80 20 -10 -11 -43 -29 -74 -41 -190 -71 -353 81 -296 277 22
76 72 127 144 144 77 18 178 -5 228 -52 13 -12 24 -20 26 -17 1 2 19 23 40 47
20 23 37 47 37 52 0 16 -78 68 -134 88 -61 23 -142 31 -212 22z"/>
<path d="M6150 20330 c-64 -8 -120 -25 -170 -51 -65 -34 -64 -31 -30 -88 18
-29 35 -50 39 -48 58 31 126 57 163 62 68 10 142 -10 173 -46 22 -27 44 -94
33 -104 -2 -2 -62 -5 -133 -5 -165 -2 -234 -19 -286 -71 -45 -45 -64 -104 -55
-173 7 -64 44 -118 103 -153 44 -26 56 -28 148 -28 94 0 103 2 157 33 32 17
60 32 63 32 3 0 5 -16 5 -35 l0 -35 76 0 75 0 -3 268 c-3 257 -4 269 -27 315
-38 78 -108 119 -221 129 -30 3 -80 2 -110 -2z m208 -430 c4 -54 -27 -101 -89
-133 -46 -25 -63 -28 -116 -25 -67 4 -105 28 -124 76 -10 26 9 84 32 98 24 15
92 22 194 20 l100 -1 3 -35z"/>
<path d="M7060 20330 c-70 -12 -114 -34 -159 -81 l-41 -43 0 62 0 62 -75 0
-75 0 0 -355 0 -355 74 0 75 0 3 208 c3 206 3 207 31 258 39 69 90 99 174 99
74 0 107 -20 141 -85 21 -42 22 -56 22 -262 l0 -218 75 0 75 0 0 255 c0 232
-2 259 -21 309 -41 110 -163 170 -299 146z"/>
<path d="M8871 20329 c-53 -10 -123 -50 -144 -82 -47 -72 -45 -176 5 -233 38
-43 77 -63 191 -99 118 -38 153 -72 131 -130 -25 -64 -186 -57 -296 12 -21 12
-41 23 -46 23 -13 0 -55 -97 -47 -109 13 -21 121 -69 183 -81 124 -25 269 10
322 77 44 56 50 161 13 225 -24 39 -88 81 -160 102 -157 47 -193 73 -179 129
13 55 137 61 244 12 30 -14 56 -24 57 -23 5 6 55 107 55 111 0 11 -127 59
-177 67 -67 11 -91 11 -152 -1z"/>
<path d="M9587 20329 c-68 -10 -167 -59 -203 -102 -91 -108 -114 -297 -53
-424 34 -70 119 -139 201 -164 127 -39 286 -11 374 65 l38 33 -39 46 c-39 44
-40 45 -60 27 -75 -67 -203 -85 -285 -40 -43 25 -92 84 -105 128 l-6 22 267 0
267 0 -6 88 c-8 113 -28 170 -83 231 -69 77 -176 108 -307 90z m148 -138 c62
-29 105 -86 105 -142 0 -18 -9 -19 -195 -19 -149 0 -195 3 -195 13 1 24 38 92
63 115 55 51 152 65 222 33z"/>
<path d="M10362 20330 c-186 -27 -302 -182 -289 -386 8 -142 70 -234 196 -293
49 -23 68 -26 161 -26 94 0 111 3 165 28 33 16 75 42 93 60 l32 31 -37 38
c-20 21 -41 38 -46 38 -4 0 -24 -12 -42 -26 -37 -28 -112 -54 -154 -54 -80 0
-175 65 -206 143 l-15 37 265 0 265 0 0 74 c0 92 -28 188 -71 239 -63 76 -191
115 -317 97z m141 -134 c61 -22 93 -62 112 -138 l7 -28 -202 0 -201 0 7 23
c39 128 153 187 277 143z"/>
<path d="M11255 20330 c-82 -12 -150 -54 -183 -115 -9 -16 -11 -7 -12 48 l0
67 -75 0 -75 0 0 -355 0 -355 74 0 75 0 3 213 c3 211 3 212 30 259 39 65 87
93 165 93 74 0 107 -20 141 -85 21 -42 22 -56 22 -262 l0 -218 74 0 75 0 3
208 c3 194 4 210 27 255 34 70 86 102 167 102 75 0 108 -20 142 -85 21 -42 22
-56 22 -262 l0 -218 75 0 75 0 0 248 c0 276 -7 320 -60 384 -47 57 -106 81
-200 80 -117 0 -186 -34 -240 -119 l-27 -41 -12 33 c-13 38 -70 91 -115 110
-43 17 -112 23 -171 15z"/>
<path d="M13384 20330 c-157 -23 -275 -141 -292 -294 -21 -182 46 -314 197
-385 49 -23 68 -26 161 -26 93 0 112 3 161 26 175 82 246 264 182 459 -52 156
-222 247 -409 220z m167 -157 c44 -23 58 -37 81 -82 55 -107 26 -249 -64 -309
-46 -30 -135 -41 -190 -23 -120 40 -175 207 -110 332 22 43 38 59 81 81 71 37
129 37 202 1z"/>
<path d="M15482 20329 c-69 -12 -108 -32 -154 -82 l-38 -40 0 61 0 62 -75 0
-75 0 0 -355 0 -355 74 0 75 0 3 213 3 214 30 48 c53 86 159 117 245 73 80
-41 85 -59 88 -320 l3 -228 75 0 74 0 0 248 c0 272 -6 314 -56 379 -49 65
-163 99 -272 82z"/>
<path d="M18892 20329 c-114 -15 -209 -87 -261 -198 -22 -49 -26 -69 -26 -156
0 -93 2 -105 33 -167 18 -36 49 -81 69 -99 135 -118 372 -118 513 1 l35 29
-42 42 -41 42 -46 -31 c-102 -67 -220 -65 -299 6 -36 33 -67 84 -67 112 0 7
88 10 260 10 l260 0 6 24 c10 40 -15 178 -42 233 -57 118 -188 175 -352 152z
m141 -133 c50 -18 76 -42 98 -91 36 -78 44 -75 -180 -75 l-200 0 16 46 c37
108 152 160 266 120z"/>
<path d="M14770 19975 l0 -355 75 0 75 0 0 355 0 355 -75 0 -75 0 0 -355z"/>
<path d="M13551 19014 c-64 -54 -28 -158 54 -158 49 0 85 36 85 85 0 51 -8 67
-41 84 -40 21 -63 19 -98 -11z"/>
<path d="M16150 19015 c-103 -33 -160 -117 -160 -237 l0 -58 -45 0 -45 0 0
-54 0 -55 43 -3 42 -3 3 -282 2 -283 75 0 75 0 2 283 3 282 88 3 87 3 0 54 0
55 -90 0 -90 0 0 50 c0 103 54 145 145 115 26 -9 48 -15 50 -13 7 8 56 110 53
112 -71 40 -170 53 -238 31z"/>
<path d="M10720 18530 l0 -490 75 0 75 0 0 490 0 490 -75 0 -75 0 0 -490z"/>
<path d="M12750 18530 l0 -490 80 0 80 0 0 103 0 102 56 58 c31 32 58 56 61
54 2 -3 48 -74 102 -158 l99 -154 91 -3 c50 -1 91 0 91 4 0 4 -6 15 -13 23
-30 35 -257 393 -257 404 1 7 54 68 120 137 l118 125 -81 3 -81 3 -153 -153
-153 -153 0 293 0 292 -80 0 -80 0 0 -490z"/>
<path d="M8793 18960 c-42 -17 -59 -96 -28 -130 14 -16 14 -23 -9 -74 l-25
-56 42 0 c41 0 43 2 90 73 65 101 63 160 -7 187 -32 12 -34 12 -63 0z"/>
<path d="M3119 18735 c-25 -8 -67 -33 -92 -56 l-47 -41 0 51 0 51 -75 0 -75 0
0 -475 0 -475 75 0 75 0 0 181 0 182 44 -41 c82 -75 226 -93 344 -42 73 32
147 113 169 188 24 82 21 211 -6 283 -28 74 -88 141 -156 174 -68 34 -186 43
-256 20z m188 -147 c123 -81 123 -305 0 -386 -35 -23 -51 -27 -117 -27 -66 0
-82 4 -117 27 -131 87 -121 322 17 395 62 34 159 30 217 -9z"/>
<path d="M3875 18739 c-52 -13 -175 -69 -175 -81 0 -6 42 -80 55 -96 1 -1 33
12 71 30 86 40 188 46 241 13 35 -21 63 -68 63 -108 l0 -24 -142 -6 c-79 -3
-159 -10 -179 -16 -46 -14 -96 -48 -123 -84 -25 -33 -34 -138 -16 -191 14 -44
86 -109 138 -124 91 -27 221 -8 287 43 l35 26 0 -40 0 -41 76 0 75 0 -3 279
-3 279 -30 44 c-21 28 -50 53 -89 72 -50 26 -71 30 -149 33 -51 1 -110 -2
-132 -8z m255 -433 c0 -82 -82 -145 -188 -146 -110 0 -168 63 -131 144 18 38
45 45 187 45 l132 1 0 -44z"/>
<path d="M4632 18736 c-132 -43 -212 -165 -212 -321 0 -211 143 -349 344 -333
71 6 125 28 166 69 16 16 32 29 36 29 16 0 -4 -130 -27 -172 -38 -67 -93 -93
-199 -93 -76 1 -92 4 -148 33 -34 17 -64 32 -66 32 -7 0 -56 -88 -56 -100 0
-21 142 -80 215 -89 189 -23 345 47 406 182 24 51 24 58 27 410 l3 357 -75 0
-76 0 0 -45 c0 -52 -7 -55 -41 -19 -13 14 -42 35 -64 47 -51 26 -172 33 -233
13z m190 -116 c135 -38 187 -212 102 -342 -67 -104 -251 -104 -318 -1 -50 78
-56 164 -17 241 46 89 136 129 233 102z"/>
<path d="M5491 18729 c-84 -27 -179 -117 -204 -194 -38 -115 -30 -233 21 -329
90 -167 354 -219 534 -105 74 48 76 52 31 100 l-40 41 -42 -30 c-134 -97 -330
-43 -367 102 l-6 26 267 0 268 0 -7 85 c-16 211 -112 312 -306 321 -67 3 -98
0 -149 -17z m202 -113 c50 -18 76 -42 98 -91 36 -78 43 -75 -176 -75 -217 0
-212 -2 -176 68 49 95 151 134 254 98z"/>
<path d="M7300 18734 c-151 -40 -250 -174 -250 -339 0 -122 52 -227 143 -288
165 -112 411 -78 521 71 86 118 88 300 6 424 -79 119 -257 175 -420 132z m182
-124 c88 -25 142 -106 143 -215 0 -60 -4 -78 -31 -125 -44 -77 -94 -103 -190
-98 -87 4 -131 30 -170 101 -68 126 -18 289 102 332 47 17 96 18 146 5z"/>
<path d="M9377 18734 c-30 -9 -65 -31 -94 -59 -26 -25 -48 -45 -50 -45 -2 0
-3 25 -3 55 l0 55 -75 0 -75 0 0 -350 0 -350 75 0 75 0 0 188 c0 214 10 261
66 317 33 33 67 48 137 60 l37 6 0 69 c0 80 -3 82 -93 54z"/>
<path d="M9776 18734 c-174 -54 -271 -223 -236 -413 21 -118 84 -200 189 -249
49 -24 68 -27 161 -27 121 1 187 21 255 79 l40 35 -41 41 -41 42 -42 -30
c-118 -85 -282 -59 -344 56 -15 27 -27 55 -27 61 0 8 77 11 265 11 l265 0 0
47 c0 140 -49 254 -132 310 -79 52 -210 68 -312 37z m187 -118 c21 -8 48 -22
59 -33 26 -23 58 -86 58 -113 0 -19 -5 -20 -195 -20 -217 0 -212 -2 -176 68
48 94 152 134 254 98z"/>
<path d="M11278 18731 c-160 -53 -238 -162 -238 -336 0 -152 60 -254 188 -317
62 -31 73 -33 172 -33 95 0 111 3 168 29 80 37 153 114 178 188 24 70 24 196
0 265 -24 72 -92 145 -171 184 -84 41 -208 50 -297 20z m193 -123 c56 -19 86
-46 114 -103 52 -105 28 -229 -58 -299 -34 -27 -48 -31 -111 -34 -109 -6 -163
26 -205 118 -38 83 -24 193 32 257 57 65 147 89 228 61z"/>
<path d="M12110 18734 c-69 -18 -148 -71 -187 -127 -83 -114 -83 -305 -2 -424
105 -152 360 -189 526 -77 99 67 137 148 138 289 0 88 -3 107 -26 155 -76 159
-259 235 -449 184z m185 -125 c86 -24 155 -144 141 -247 -8 -60 -49 -132 -92
-162 -43 -29 -141 -39 -198 -20 -84 27 -145 138 -133 241 18 147 138 228 282
188z"/>
<path d="M14223 18741 c-46 -12 -118 -57 -142 -88 l-20 -28 -1 58 0 57 -75 0
-75 0 0 -350 0 -350 74 0 75 0 3 219 3 219 30 43 c43 61 87 84 160 84 75 -1
118 -23 145 -75 18 -36 20 -59 20 -265 l0 -225 80 0 80 0 0 222 c0 122 -5 250
-11 285 -22 123 -107 193 -242 199 -40 2 -86 -1 -104 -5z"/>
<path d="M14945 18741 c-83 -23 -161 -83 -196 -153 -32 -62 -45 -165 -30 -244
16 -89 39 -132 101 -188 112 -100 299 -103 401 -6 l39 37 0 -59 c0 -105 -46
-175 -133 -204 -72 -24 -161 -15 -243 26 -36 18 -67 30 -68 28 -14 -15 -56
-90 -56 -98 0 -11 76 -51 133 -70 109 -35 254 -28 343 15 28 14 72 47 97 74
74 79 77 99 77 498 l0 343 -75 0 -75 0 0 -51 0 -51 -28 30 c-45 49 -108 75
-187 78 -38 2 -83 -1 -100 -5z m214 -140 c54 -28 91 -92 98 -170 5 -49 1 -68
-20 -113 -36 -80 -82 -112 -166 -116 -55 -3 -74 1 -111 20 -90 49 -129 192
-79 295 49 102 170 138 278 84z"/>
<path d="M16589 18736 c-106 -28 -204 -116 -235 -209 -23 -69 -23 -195 0 -265
25 -73 98 -151 178 -188 57 -26 73 -29 168 -29 92 0 112 3 161 26 73 34 128
85 165 151 28 50 29 59 29 173 0 132 -10 165 -76 240 -84 95 -251 139 -390
101z m197 -135 c81 -37 124 -108 124 -206 0 -140 -80 -225 -212 -225 -78 0
-129 27 -173 88 -26 38 -30 54 -33 120 -3 69 -1 83 25 132 24 46 37 60 82 83
65 32 127 35 187 8z"/>
<path d="M17518 18734 c-32 -10 -64 -31 -98 -65 l-50 -50 0 61 0 60 -75 0 -75
0 0 -350 0 -350 74 0 74 0 4 203 c3 183 5 206 25 242 40 76 85 106 176 119
l47 7 0 70 c0 69 0 69 -27 68 -16 0 -49 -7 -75 -15z"/>
<path d="M6333 18723 c2 -10 66 -164 142 -343 l137 -325 -26 -53 c-39 -78
-103 -99 -173 -56 -20 13 -23 10 -53 -43 l-32 -57 25 -22 c41 -35 125 -50 194
-34 47 10 65 21 106 64 49 49 57 66 217 469 l166 417 -77 0 -77 0 -14 -37 c-8
-21 -51 -136 -94 -255 -43 -120 -81 -218 -84 -218 -3 0 -50 115 -105 255
l-100 255 -79 0 c-70 0 -78 -2 -73 -17z"/>
<path d="M7920 18489 c0 -273 5 -306 52 -364 42 -50 100 -77 179 -83 96 -7
169 17 225 73 l44 44 0 -59 0 -60 75 0 75 0 0 350 0 350 -75 0 -75 0 0 -194
c0 -204 -5 -238 -48 -295 -72 -97 -236 -91 -282 11 -17 38 -20 67 -20 261 l0
217 -75 0 -75 0 0 -251z"/>
<path d="M13530 18390 l0 -350 75 0 75 0 0 350 0 350 -75 0 -75 0 0 -350z"/>
<path d="M17750 18203 c-67 -25 -81 -103 -28 -148 36 -31 79 -29 113 5 27 27
27 93 0 119 -22 22 -62 33 -85 24z"/>
<path d="M47787 17128 c-292 -315 -555 -637 -891 -1093 -214 -290 -342 -476
-631 -915 -1093 -1663 -1496 -2225 -1964 -2748 -41 -46 -76 -90 -77 -97 -1 -7
-5 -23 -8 -36 -10 -36 181 167 203 216 16 36 64 86 177 186 77 68 331 380 578
708 210 280 421 575 856 1196 224 319 427 609 453 645 25 36 75 108 111 160
36 52 109 159 163 237 54 79 125 182 158 230 357 525 635 922 850 1218 151
208 149 205 136 205 -5 0 -56 -51 -114 -112z"/>
<path d="M7000 16565 c0 -150 -6 -179 -29 -137 -5 10 -33 31 -61 46 -132 72
-306 7 -356 -131 -18 -52 -17 -160 2 -216 19 -57 95 -131 150 -146 95 -26 201
-5 253 53 34 36 41 33 41 -19 l0 -45 40 0 40 0 0 375 0 375 -40 0 -40 0 0
-155z m-100 -155 c91 -47 124 -185 68 -282 -74 -125 -269 -116 -329 16 -47
103 -3 237 91 275 43 17 127 13 170 -9z"/>
<path d="M2770 16325 l0 -355 245 0 245 0 0 40 0 40 -205 0 -206 0 3 118 3
117 178 3 177 2 0 40 0 40 -180 0 -181 0 3 113 3 112 198 3 197 2 0 40 0 40
-240 0 -240 0 0 -355z"/>
<path d="M8397 16451 c-87 -155 -127 -238 -127 -259 l0 -32 168 -2 167 -3 3
-92 3 -93 34 0 34 0 3 93 3 92 53 3 c52 3 52 3 52 37 0 34 0 34 -52 37 l-53 3
-3 93 -3 92 -34 0 -34 0 -3 -92 -3 -93 -117 -3 c-81 -2 -118 1 -118 8 0 6 49
100 109 208 61 108 113 205 116 215 6 14 1 17 -32 17 l-39 0 -127 -229z"/>
<path d="M9087 16670 c-59 -15 -91 -36 -136 -86 -89 -101 -105 -326 -35 -472
48 -98 151 -150 278 -140 119 10 210 86 241 202 25 93 18 271 -14 343 -25 57
-84 117 -136 139 -43 18 -151 25 -198 14z m145 -72 c94 -28 143 -135 136 -297
-7 -176 -74 -261 -206 -261 -134 0 -202 94 -203 281 0 99 5 127 37 190 42 84
133 118 236 87z"/>
<path d="M9666 16455 c-94 -168 -126 -234 -126 -260 l0 -35 168 -2 167 -3 3
-92 3 -93 34 0 34 0 3 93 3 92 53 3 c52 3 52 3 52 37 0 34 0 34 -52 37 l-53 3
-3 93 -3 92 -34 0 -34 0 -3 -92 -3 -93 -122 -3 c-68 -1 -123 0 -123 3 0 2 54
102 120 220 66 118 120 218 120 220 0 3 -18 5 -39 5 l-39 0 -126 -225z"/>
<path d="M3410 16235 l0 -265 39 0 39 0 4 163 c3 149 5 165 27 203 27 47 84
84 130 84 30 0 31 2 31 40 0 36 -2 40 -25 40 -41 0 -95 -27 -131 -66 l-34 -35
0 50 0 51 -40 0 -40 0 0 -265z"/>
<path d="M3790 16235 l0 -265 40 0 40 0 0 163 c0 149 2 165 23 202 29 52 79
85 128 85 39 0 39 0 39 40 0 38 -2 40 -29 40 -45 0 -82 -17 -123 -58 l-38 -36
0 47 0 47 -40 0 -40 0 0 -265z"/>
<path d="M4254 16476 c-59 -27 -116 -90 -132 -145 -33 -109 -1 -237 74 -299
80 -66 218 -81 310 -34 47 24 100 81 120 128 19 45 18 175 -2 222 -54 130
-233 192 -370 128z m199 -60 c79 -34 126 -133 106 -225 -12 -56 -59 -118 -105
-137 -69 -29 -169 -9 -216 43 -84 92 -52 270 57 319 39 17 117 18 158 0z"/>
<path d="M4780 16235 l0 -265 40 0 40 0 0 153 c0 138 2 156 24 202 27 59 63
86 123 93 42 5 43 5 43 43 0 36 -2 39 -27 39 -40 -1 -106 -33 -130 -64 -12
-14 -24 -26 -27 -26 -3 0 -6 20 -6 45 l0 45 -40 0 -40 0 0 -265z"/>
<path d="M5524 16476 c-59 -27 -116 -90 -132 -145 -7 -21 -12 -64 -12 -96 0
-77 16 -127 58 -175 47 -55 103 -82 183 -88 79 -5 149 14 200 57 l34 29 -24
26 c-24 26 -25 26 -45 7 -69 -65 -200 -66 -269 -3 -98 88 -64 286 56 331 62
24 163 6 209 -36 16 -15 19 -14 37 8 25 30 25 32 3 52 -66 60 -207 76 -298 33z"/>
<path d="M6065 16476 c-61 -28 -120 -91 -134 -143 -14 -50 -14 -146 0 -194 39
-129 204 -202 350 -154 66 22 139 92 157 151 15 50 16 146 2 195 -14 51 -76
118 -134 145 -71 33 -171 33 -241 0z m192 -57 c131 -49 154 -256 38 -345 -61
-46 -168 -45 -225 3 -110 92 -87 291 40 342 34 13 112 13 147 0z"/>
<path d="M7370 16479 c-56 -25 -95 -62 -123 -114 -18 -32 -22 -57 -22 -130 0
-78 3 -96 25 -135 30 -53 96 -105 153 -121 91 -24 221 4 271 60 20 22 20 22
-2 43 -20 20 -23 21 -40 5 -30 -27 -89 -47 -141 -47 -85 0 -135 30 -172 102
-36 71 -43 68 196 68 l215 0 0 38 c0 100 -57 198 -135 233 -56 26 -166 25
-225 -2z m200 -64 c14 -7 33 -21 42 -32 18 -19 48 -84 48 -103 0 -6 -63 -10
-181 -10 l-181 0 7 28 c16 67 65 117 126 132 40 10 104 3 139 -15z"/>
<path d="M21173 6184 c-6 -16 2 -241 11 -299 34 -223 130 -411 283 -555 124
-118 245 -184 412 -226 l94 -24 12159 0 c11056 0 12166 1 12236 16 314 64 579
301 679 605 43 128 45 141 50 332 l5 167 -12961 0 c-11882 0 -12962 -1 -12968
-16z"/>
</g>
</svg>
